HIERARCHY
ROOT Hips
{
	OFFSET -0.001795 -0.223333 0.028219
	CHANNELS 6 Xposition Yposition Zposition Zrotation Yrotation Xrotation 
	JOINT LeftUpLeg
	{
		OFFSET 0.069520 -0.091406 -0.006815
		CHANNELS 3 Zrotation Yrotation Xrotation
		JOINT LeftLeg
		{
			OFFSET 0.034277 -0.375199 -0.004496
			CHANNELS 3 Zrotation Yrotation Xrotation
			JOINT LeftFoot
			{
				OFFSET -0.013596 -0.397961 -0.043693
				CHANNELS 3 Zrotation Yrotation Xrotation
				JOINT LeftToe
				{
					OFFSET 0.026358 -0.055791 0.119288
					CHANNELS 3 Zrotation Yrotation Xrotation
					End Site
					{
						OFFSET 0.000000 0.000000 0.000000
					}
				}
			}
		}
	}
	JOINT RightUpLeg
	{
		OFFSET -0.067670 -0.090522 -0.004320
		CHANNELS 3 Zrotation Yrotation Xrotation
		JOINT RightLeg
		{
			OFFSET -0.038290 -0.382569 -0.008850
			CHANNELS 3 Zrotation Yrotation Xrotation
			JOINT RightFoot
			{
				OFFSET 0.015774 -0.398415 -0.042312
				CHANNELS 3 Zrotation Yrotation Xrotation
				JOINT RightToe
				{
					OFFSET -0.025372 -0.048144 0.123348
					CHANNELS 3 Zrotation Yrotation Xrotation
					End Site
					{
						OFFSET 0.000000 0.000000 0.000000
					}
				}
			}
		}
	}
	JOINT Spine
	{
		OFFSET -0.002533 0.108963 -0.026696
		CHANNELS 3 Zrotation Yrotation Xrotation
		JOINT Spine1
		{
			OFFSET 0.005487 0.135180 0.001092
			CHANNELS 3 Zrotation Yrotation Xrotation
			JOINT Spine2
			{
				OFFSET 0.001457 0.052922 0.025425
				CHANNELS 3 Zrotation Yrotation Xrotation
				JOINT Neck
				{
					OFFSET -0.002778 0.213870 -0.042857
					CHANNELS 3 Zrotation Yrotation Xrotation
					JOINT Head
					{
						OFFSET 0.005152 0.064970 0.051349
						CHANNELS 3 Zrotation Yrotation Xrotation
						End Site
						{
							OFFSET 0.000000 0.000000 0.000000
						}
					}
				}
				JOINT LeftShoulder
				{
					OFFSET 0.078845 0.121749 -0.034090
					CHANNELS 3 Zrotation Yrotation Xrotation
					JOINT LeftArm
					{
						OFFSET 0.090977 0.030469 -0.008868
						CHANNELS 3 Zrotation Yrotation Xrotation
						JOINT LeftForeArm
						{
							OFFSET 0.259612 -0.012772 -0.027456
							CHANNELS 3 Zrotation Yrotation Xrotation
							JOINT LeftHand
							{
								OFFSET 0.249234 0.008986 -0.001171
								CHANNELS 3 Zrotation Yrotation Xrotation
								End Site
								{
									OFFSET 0.000000 0.000000 0.000000
								}
							}
						}
					}
				}
				JOINT RightShoulder
				{
					OFFSET -0.081759 0.118833 -0.038615
					CHANNELS 3 Zrotation Yrotation Xrotation
					JOINT RightArm
					{
						OFFSET -0.096012 0.032551 -0.009143
						CHANNELS 3 Zrotation Yrotation Xrotation
						JOINT RightForeArm
						{
							OFFSET -0.253742 -0.013329 -0.021401
							CHANNELS 3 Zrotation Yrotation Xrotation
							JOINT RightHand
							{
								OFFSET -0.255298 0.007772 -0.005559
								CHANNELS 3 Zrotation Yrotation Xrotation
								End Site
								{
									OFFSET 0.000000 0.000000 0.000000
								}
							}
						}
					}
				}
			}
		}
	}
}
MOTION
Frames: 16
Frame Time: 0.050000
-0.059033 0.936327 0.279287 0.836307 -8.173142 0.491184 -3.108543 0.454615 3.503409 0.230702 0.172140 -5.418327 8.572096 17.890228 9.160103 0.000000 0.000000 0.000000 -4.606649 0.230955 -0.591769 5.160097 -0.441212 1.596302 -8.249579 -20.256696 7.997947 0.000000 0.000000 0.000000 0.347920 0.417677 -8.016730 -6.363564 2.959267 -1.863171 3.628035 4.588207 10.050764 10.101203 -4.377802 -21.004695 0.000000 0.000000 0.000000 -29.248651 -7.130000 2.152594 -49.497945 -3.715887 -4.911218 -2.995499 -24.821680 1.689740 0.000000 0.000000 0.000000 7.122579 20.206331 7.800847 3.645179 39.565605 -1.576373 -61.815875 13.412732 -6.258613 0.000000 0.000000 0.000000 
-0.058538 0.936292 0.278915 0.737005 -7.846587 0.306275 -3.094537 0.448416 3.467890 0.399621 0.143269 -5.042925 8.460578 17.715242 8.917120 0.000000 0.000000 0.000000 -4.257171 0.184955 -0.120718 4.722784 -0.405048 1.174937 -8.365652 -20.469223 8.149395 0.000000 0.000000 0.000000 1.218314 0.431631 -7.479180 -7.105871 3.319659 -1.771565 3.217552 5.567793 9.229885 11.008123 -4.665839 -21.314273 0.000000 0.000000 0.000000 -28.991567 -7.667916 1.968359 -49.295465 -2.686318 -5.079964 -2.876961 -24.916882 1.608065 0.000000 0.000000 0.000000 2.900192 21.920413 8.059830 -6.502129 38.358453 -4.081498 -55.525530 3.907361 -0.718010 0.000000 0.000000 0.000000 
-0.058005 0.936276 0.278722 0.793376 -7.201368 0.218793 -3.389942 0.468101 3.535997 0.863051 0.110293 -5.102664 8.164506 17.229203 8.782632 0.000000 0.000000 0.000000 -3.922849 0.171438 -0.247456 4.054656 -0.345735 1.694706 -8.708184 -21.095393 8.238922 0.000000 0.000000 0.000000 1.257803 0.392388 -6.909892 -7.281507 3.381459 -2.091466 2.859402 6.306502 8.857911 12.335374 -5.335997 -21.075115 0.000000 0.000000 0.000000 -28.667904 -8.204127 1.852673 -49.322459 -1.270800 -5.481113 -2.873541 -25.260152 1.576967 0.000000 0.000000 0.000000 -1.084121 22.404593 7.694360 -12.599886 36.560731 -5.213254 -49.186911 -0.942429 1.505521 0.000000 0.000000 0.000000 
-0.057471 0.935928 0.278499 0.655586 -6.573306 0.014454 -3.434346 0.526087 3.970727 1.258059 0.102928 -5.539050 7.858933 16.730129 8.551648 0.000000 0.000000 0.000000 -3.538432 0.129325 0.066078 3.672410 -0.314115 1.690743 -8.995771 -21.616471 8.353896 0.000000 0.000000 0.000000 1.534164 0.384304 -6.612298 -7.568148 3.511361 -2.198231 2.998405 6.601581 8.749969 12.932304 -5.423784 -21.945091 0.000000 0.000000 0.000000 -28.314479 -8.307252 1.676706 -49.637279 -0.311655 -5.823461 -2.407221 -25.169047 1.439474 0.000000 0.000000 0.000000 -3.763669 22.533735 7.312889 -15.487928 34.819341 -5.450360 -46.139073 -2.130316 1.900017 0.000000 0.000000 0.000000 
-0.056847 0.935547 0.278190 0.625750 -6.322947 -0.087495 -3.497747 0.551208 4.146277 1.399962 0.102110 -5.713412 7.746259 16.543916 8.381016 0.000000 0.000000 0.000000 -3.448205 0.118443 0.133985 3.539581 -0.301750 1.798089 -9.126246 -21.849908 8.319767 0.000000 0.000000 0.000000 1.398917 0.367337 -6.468200 -7.621754 3.547560 -2.061837 3.086881 6.826021 8.368976 12.985431 -5.585328 -21.084189 0.000000 0.000000 0.000000 -28.750228 -7.704448 1.100132 -48.949164 0.872201 -6.117499 -2.570171 -25.329055 1.463414 0.000000 0.000000 0.000000 -4.492328 22.367570 7.148656 -16.569283 34.076945 -5.483458 -46.146530 -1.176738 1.560404 0.000000 0.000000 0.000000 
-0.056308 0.935075 0.278027 0.659986 -6.164045 0.001938 -3.551989 0.551384 4.124946 1.387499 0.112755 -5.898346 7.674349 16.421716 8.234163 0.000000 0.000000 0.000000 -3.514880 0.121340 0.122251 3.558630 -0.306786 1.651725 -9.212152 -22.003512 8.251457 0.000000 0.000000 0.000000 1.089873 0.364009 -6.682822 -7.327405 3.414841 -1.971270 3.313483 7.292811 7.992408 12.964014 -5.478999 -21.166756 0.000000 0.000000 0.000000 -28.792297 -6.931592 0.368513 -48.944252 1.871129 -6.412504 -2.616171 -25.676662 1.464283 0.000000 0.000000 0.000000 -3.503607 21.899248 7.184889 -16.087528 34.621058 -5.457840 -49.970126 0.402470 1.104415 0.000000 0.000000 0.000000 
-0.055904 0.934536 0.277929 0.765849 -6.219442 -0.134999 -3.940803 0.579334 4.215862 1.820536 0.079269 -5.825514 7.739645 16.533213 8.113026 0.000000 0.000000 0.000000 -3.597086 0.111372 0.322859 3.442312 -0.296062 1.521791 -9.202961 -21.977682 8.043712 0.000000 0.000000 0.000000 0.797230 0.351500 -6.710609 -7.035574 3.267024 -2.144926 3.469154 7.266028 8.138210 12.674804 -5.358649 -21.029698 0.000000 0.000000 0.000000 -29.295196 -5.986034 -0.246203 -48.537268 2.743012 -6.703465 -2.555611 -25.892876 1.468783 0.000000 0.000000 0.000000 -2.372505 22.001504 7.407298 -14.862166 35.108163 -5.309458 -56.265727 3.150451 -0.094378 0.000000 0.000000 0.000000 
-0.055790 0.933981 0.277711 0.749840 -6.323250 -0.443370 -3.885643 0.597715 4.390448 1.727599 0.069353 -5.534693 7.827714 16.683003 7.834336 0.000000 0.000000 0.000000 -3.475232 0.093267 0.501555 3.226220 -0.269633 1.777288 -9.185399 -21.934172 7.776402 0.000000 0.000000 0.000000 0.390524 0.335021 -6.765887 -6.911038 3.225670 -1.911830 3.971163 7.253194 8.144256 12.025824 -5.079551 -20.641993 0.000000 0.000000 0.000000 -29.337303 -5.331202 -0.615729 -48.968825 3.524546 -7.096322 -2.220361 -26.930208 1.457053 0.000000 0.000000 0.000000 -1.309385 21.705773 7.477349 -12.812082 36.226461 -5.080790 -63.768876 5.963919 -1.736293 0.000000 0.000000 0.000000 
-0.056018 0.933178 0.277218 0.895217 -6.624109 -0.604705 -4.058793 0.588804 4.282494 1.732897 0.043289 -5.074534 8.031511 17.032072 7.584474 0.000000 0.000000 0.000000 -3.745323 0.108847 0.456436 3.416517 -0.283466 2.033756 -9.096001 -21.751484 7.313743 0.000000 0.000000 0.000000 0.364312 0.348208 -6.994475 -6.963060 3.256093 -1.832799 4.178395 7.084304 8.299297 11.608138 -4.960817 -20.255649 0.000000 0.000000 0.000000 -29.774238 -5.004031 -0.714154 -49.026060 3.907346 -7.302493 -0.925712 -27.601197 1.204123 0.000000 0.000000 0.000000 -0.014743 22.109501 7.817256 -10.345591 37.475493 -4.745239 -72.696339 9.594814 -4.609443 0.000000 0.000000 0.000000 
-0.056610 0.932904 0.276385 0.914907 -6.991805 -0.794256 -3.901333 0.566328 4.181350 1.432994 0.039455 -4.572325 8.240828 17.391918 7.460741 0.000000 0.000000 0.000000 -3.705182 0.109441 0.446484 3.333312 -0.268388 2.250906 -8.958095 -21.478047 7.038855 0.000000 0.000000 0.000000 0.384229 0.346217 -6.892648 -6.993142 3.264851 -1.922072 4.474314 7.066508 8.641734 10.933611 -4.660995 -19.976063 0.000000 0.000000 0.000000 -30.020049 -4.801921 -0.746611 -49.095465 3.651678 -7.270679 -0.116909 -28.096566 1.047879 0.000000 0.000000 0.000000 1.630599 22.164137 8.093414 -8.261283 39.681529 -4.592233 -81.127144 12.364644 -7.641007 0.000000 0.000000 0.000000 
-0.057620 0.932275 0.275254 1.076482 -7.260988 -1.036918 -3.820564 0.568129 4.234399 1.065866 0.056554 -4.314322 8.378325 17.635065 7.309056 0.000000 0.000000 0.000000 -3.638054 0.106900 0.445997 2.996356 -0.225257 2.527223 -8.900658 -21.342708 6.606476 0.000000 0.000000 0.000000 0.360570 0.326391 -6.535781 -7.126606 3.333069 -1.868840 4.538914 6.780639 8.693130 10.415120 -4.413821 -19.958834 0.000000 0.000000 0.000000 -30.374971 -4.922942 -0.504400 -48.822036 3.265337 -7.132970 1.198688 -28.505880 0.763258 0.000000 0.000000 0.000000 2.930182 22.446651 8.379201 -5.788996 41.401728 -4.177308 -88.607290 15.188691 -11.391721 0.000000 0.000000 0.000000 
-0.058846 0.931961 0.273866 1.135343 -7.299142 -1.352285 -3.595920 0.553337 4.211670 0.709108 0.064290 -3.798292 8.420300 17.712993 7.113172 0.000000 0.000000 0.000000 -3.269583 0.084278 0.520382 2.382030 -0.149659 2.864697 -8.935477 -21.391157 6.371316 0.000000 0.000000 0.000000 0.285119 0.281711 -5.782841 -7.034499 3.279754 -2.040585 4.500317 6.745381 8.761813 10.103649 -4.329407 -19.477609 0.000000 0.000000 0.000000 -30.575567 -5.239700 -0.281294 -48.395003 3.010459 -6.979398 0.952250 -29.101113 0.845993 0.000000 0.000000 0.000000 4.254291 22.284743 8.528389 -3.522380 43.191978 -3.718343 -93.764580 18.139126 -15.402005 0.000000 0.000000 0.000000 
-0.060211 0.931681 0.272178 1.131916 -7.294871 -1.528206 -3.338475 0.528294 4.109457 0.440610 0.073934 -3.438762 8.438324 17.746191 6.963886 0.000000 0.000000 0.000000 -2.931685 0.078798 0.371437 1.978036 -0.090894 3.316227 -8.990818 -21.485846 6.182652 0.000000 0.000000 0.000000 0.256711 0.256456 -5.331962 -6.885790 3.204762 -2.129451 4.565925 6.514553 9.034007 9.762875 -4.078437 -19.977630 0.000000 0.000000 0.000000 -30.468283 -5.715864 0.168029 -48.557388 2.436606 -6.845055 0.861284 -29.471902 0.901360 0.000000 0.000000 0.000000 5.205076 22.205986 8.623540 -0.970748 44.574334 -3.066327 -98.142366 20.867913 -19.603583 0.000000 0.000000 0.000000 
-0.061457 0.931612 0.270255 0.936478 -7.186055 -1.417452 -2.975462 0.465596 3.725103 0.356361 0.070106 -3.134489 8.423361 17.715481 6.842234 0.000000 0.000000 0.000000 -2.498383 0.096965 -0.130833 1.792012 -0.052276 3.867254 -9.081972 -21.670300 6.187631 0.000000 0.000000 0.000000 0.290732 0.246106 -5.115974 -6.769124 3.156655 -2.022305 4.628475 6.346909 9.011459 9.436390 -3.945216 -19.705487 0.000000 0.000000 0.000000 -30.380737 -6.067624 0.456881 -48.496307 1.890633 -6.637610 0.760306 -29.692578 0.940775 0.000000 0.000000 0.000000 5.855414 22.152672 8.695516 1.158437 45.431431 -2.432287 -100.415787 23.300015 -23.110732 0.000000 0.000000 0.000000 
-0.062555 0.931562 0.268422 0.937386 -7.189063 -1.434530 -2.694072 0.420445 3.443063 0.002943 0.092042 -2.792710 8.434126 17.730484 6.794754 0.000000 0.000000 0.000000 -2.466899 0.119942 -0.464921 1.902745 -0.052414 4.301552 -9.110828 -21.726012 6.103628 0.000000 0.000000 0.000000 0.344720 0.235911 -4.878878 -6.779548 3.167584 -1.925816 4.648924 6.480205 8.808215 9.387567 -3.858581 -19.910184 0.000000 0.000000 0.000000 -30.350260 -6.355272 0.586383 -48.338791 1.198087 -6.315824 0.872184 -30.070921 0.910947 0.000000 0.000000 0.000000 6.953546 22.051898 8.850345 2.907239 46.094712 -1.864498 -102.507914 26.062805 -27.090367 0.000000 0.000000 0.000000 
-0.063469 0.931711 0.266962 0.860210 -7.301390 -1.412517 -2.504175 0.393368 3.271291 -0.072924 0.094912 -2.657746 8.490857 17.825254 6.877641 0.000000 0.000000 0.000000 -2.388032 0.131692 -0.650984 2.034401 -0.064710 4.421236 -9.061556 -21.632675 6.109504 0.000000 0.000000 0.000000 0.601384 0.238571 -4.739028 -6.802462 3.167380 -2.087297 4.658078 6.737286 9.017982 9.290403 -3.804694 -19.793013 0.000000 0.000000 0.000000 -30.454682 -6.771499 0.783219 -47.886810 0.838913 -6.104649 0.639871 -30.477750 0.974921 0.000000 0.000000 0.000000 7.668163 22.014054 8.982507 3.879232 46.670572 -1.549446 -104.165397 27.487178 -29.466707 0.000000 0.000000 0.000000 
